<svg fill="none" height="14" viewBox="0 0 140 14" width="140" xmlns="http://www.w3.org/2000/svg"><path d="m6.03977 9.17045.75568-.75568-2.42613-2.42613 2.42613-2.42614-.75568-.75568-2.42613 2.42613-2.42614-2.42613-.755682.75568 2.426132 2.42614-2.426132 2.42613.755682.75568 2.42614-2.42613zm15.95013-3.26136c0-3.22159-1.8892-5.230113-4.4943-5.230113-2.6052 0-4.4944 2.008523-4.4944 5.230113s1.8892 5.23011 4.4944 5.23011c2.6051 0 4.4943-2.00852 4.4943-5.23011zm-1.1932 0c0 2.64489-1.4517 4.07671-3.3011 4.07671-1.8495 0-3.3012-1.43182-3.3012-4.07671s1.4517-4.0767 3.3012-4.0767c1.8494 0 3.3011 1.43181 3.3011 4.0767zm8.9936-2.54545h-1.1733v3.87287c-.5668.16406-1.1484.26349-1.8494.26349-.9546 0-1.6904-.53693-1.6904-1.71023v-2.44602h-1.1733v2.44602c0 1.86932 1.1336 2.80398 2.8637 2.80398.7209 0 1.2976-.09446 1.8494-.25852v2.66477h1.1733zm3.326 5.90625v-5.90625h-1.1733v7.63636h1.3722l3.6591-5.90625v5.90625h1.1732v-7.63636h-1.3522zm10.2825 1.88921c1.6903 0 2.804-1.0341 3.0028-2.38637h-1.1733c-.2187.83522-.9147 1.33237-1.8295 1.33237-1.3921 0-2.2869-1.1534-2.2869-2.92328 0-1.73012.9147-2.86364 2.2869-2.86364 1.0341 0 1.6506.63637 1.8295 1.33239h1.1733c-.1988-1.43182-1.4119-2.38637-3.0227-2.38637-2.0682 0-3.4403 1.63069-3.4403 3.95739 0 2.28693 1.3125 3.93751 3.4602 3.93751zm4.1165-6.70171h2.5255v6.54261h1.1733v-6.54261h2.5057v-1.09375h-6.2045zm9.0893 4.8125v-5.90625h-1.1733v7.63636h1.3721l3.6591-5.90625v5.90625h1.1733v-7.63636h-1.3522zm6.1411-4.8125h2.5256v6.54261h1.1733v-6.54261h2.5057v-1.09375h-6.2046zm9.0893 1.67045v-2.7642h-1.1732v7.63636h3.2017c1.7897 0 2.7642-1.09375 2.7642-2.46591 0-1.39204-.9745-2.40625-2.7642-2.40625zm0 1.09375h2.0285c.9296 0 1.5909.56676 1.5909 1.37216 0 .7706-.6613 1.3125-1.5909 1.3125h-2.0285zm13.6185 6.38351h1.1733v-2.446c2.0682 0 3.4602-1.57103 3.4602-3.93751 0-2.38636-1.392-3.95739-3.4602-3.95739v-2.446018h-1.1733v2.446018c-2.0682 0-3.4602 1.57103-3.4602 3.95739 0 2.36648 1.392 3.93751 3.4602 3.93751zm1.1733-3.5v-5.78692c1.571 0 2.2869 1.37216 2.2869 2.90341s-.7159 2.88351-2.2869 2.88351zm-1.1733 0c-1.571 0-2.287-1.35226-2.287-2.88351s.716-2.90341 2.287-2.90341zm7.6003-.83521v-5.90625h-1.1733v7.63636h1.3722l3.6591-5.90625v5.90625h1.1732v-7.63636h-1.3522zm6.5041 1.73011h.3977c1.6904 0 2.1774-1.3125 2.2874-3.81818l.119-2.72443h2.804v6.54261h1.173v-7.63636h-5.091l-.139 3.38068c-.099 2.56534-.358 3.16193-1.2727 3.16193h-.2784zm10.1071-4.87216v-2.7642h-1.173v7.63636h3.202c1.789 0 2.764-1.09375 2.764-2.46591 0-1.39204-.975-2.40625-2.764-2.40625zm0 1.09375h2.029c.929 0 1.59.56676 1.59 1.37216 0 .7706-.661 1.3125-1.59 1.3125h-2.029zm5.348-2.7642h2.526v6.54261h1.173v-6.54261h2.506v-1.09375h-6.205zm7.916 9.40621h1.174v-4.0369h.099c.259.4176.756 1.3324 2.227 1.3324 1.909 0 3.242-1.53126 3.242-3.9574 0-2.40625-1.333-3.9375-3.262-3.9375-1.491 0-1.948.91478-2.207 1.3125h-.139v-1.21306h-1.134zm1.154-6.68178c0-1.71023.755-2.86364 2.187-2.86364 1.492 0 2.228 1.25284 2.228 2.86364 0 1.63068-.756 2.92328-2.228 2.92328-1.412 0-2.187-1.19317-2.187-2.92328zm8.551-1.05398v-2.7642h-1.173v7.63636h3.201c1.79 0 2.764-1.09375 2.764-2.46591 0-1.39204-.974-2.40625-2.764-2.40625zm6.006 4.87216h1.173v-7.63636h-1.173zm-6.006-3.77841h2.028c.93 0 1.591.56676 1.591 1.37216 0 .7706-.661 1.3125-1.591 1.3125h-2.028z" fill="currentColor"/></svg>