<svg fill="none" height="36" viewBox="0 0 36 36" width="36" xmlns="http://www.w3.org/2000/svg"><g fill="currentColor"><path d="m33.6202 17.5303c-3.37-6.23-9.28-10.00003-15.82-10.00003s-12.45999 3.77003-15.79999 10.00003l-.28.47.26.48c3.37 6.23 9.27999 10 15.81999 10s12.46-3.72 15.82-10l.26-.48zm-15.82 8.9c-5.63 0-10.79999-3.14-13.79999-8.43 3-5.29 8.16999-8.43003 13.79999-8.43003s10.74 3.15003 13.79 8.43003c-3.05 5.29-8.17 8.43-13.79 8.43z"/><path d="m18.09 24.8899c3.7887 0 6.86-3.0713 6.86-6.86s-3.0713-6.86-6.86-6.86-6.86 3.0713-6.86 6.86 3.0713 6.86 6.86 6.86z"/></g></svg>