<svg fill="none" height="36" viewBox="0 0 36 36" width="36" xmlns="http://www.w3.org/2000/svg"><path d="m30.9375 3.9375h-25.875c-.62227 0-1.125.50273-1.125 1.125v25.875c0 .6223.50273 1.125 1.125 1.125h25.875c.6223 0 1.125-.5027 1.125-1.125v-25.875c0-.62227-.5027-1.125-1.125-1.125zm-3.2484 8.209h-2.2465c-1.7614 0-2.1024.8367-2.1024 2.0672v2.7105h4.2047l-.5484 4.2434h-3.6563v10.8949h-4.3839v-10.8914h-3.6668v-4.2469h3.6668v-3.1289c0-3.6316 2.2183-5.61093 5.4597-5.61093 1.5539 0 2.8863.11602 3.2766.16875v3.79338z" fill="currentColor"/></svg>