<svg fill="none" height="36" viewBox="0 0 36 36" width="36" xmlns="http://www.w3.org/2000/svg"><path d="m18.0001 13.3134c-2.5805 0-4.6863 2.1059-4.6863 4.6864 0 2.5804 2.1058 4.6863 4.6863 4.6863s4.6863-2.1059 4.6863-4.6863c0-2.5805-2.1058-4.6864-4.6863-4.6864zm14.0555 4.6864c0-1.9407.0176-3.8637-.0914-5.8008-.109-2.25001-.6223-4.24688-2.2676-5.89219-1.6488-1.64883-3.6422-2.1586-5.8922-2.26758-1.9406-.10899-3.8637-.09141-5.8008-.09141-1.9406 0-3.8637-.01758-5.8008.09141-2.24996.10898-4.24683.62226-5.89215 2.26758-1.64883 1.64882-2.15859 3.64218-2.26758 5.89219-.10898 1.9406-.0914 3.8637-.0914 5.8008s-.01758 3.8636.0914 5.8008c.10899 2.25.62227 4.2468 2.26758 5.8921 1.64883 1.6489 3.64219 2.1586 5.89215 2.2676 1.9407.109 3.8637.0914 5.8008.0914 1.9406 0 3.8637.0176 5.8008-.0914 2.25-.109 4.2469-.6222 5.8922-2.2676 1.6488-1.6488 2.1586-3.6421 2.2676-5.8921.1125-1.9372.0914-3.8602.0914-5.8008zm-14.0555 7.2105c-3.9902 0-7.2105-3.2203-7.2105-7.2105 0-3.9903 3.2203-7.2106 7.2105-7.2106s7.2106 3.2203 7.2106 7.2106c0 3.9902-3.2204 7.2105-7.2106 7.2105zm7.5059-13.0324c-.9317 0-1.684-.7523-1.684-1.684 0-.93163.7523-1.68397 1.684-1.68397.9316 0 1.684.75234 1.684 1.68397.0002.2212-.0431.4403-.1277.6448-.0845.2044-.2085.3902-.365.5466-.1564.1564-.3421.2804-.5466.365-.2044.0845-.4235.1279-.6447.1276z" fill="currentColor"/></svg>