<svg fill="none" height="32" viewBox="0 0 150 32" width="150" xmlns="http://www.w3.org/2000/svg"><g fill="currentColor" opacity=".9"><path d="m15.6618 12.4347c-.5369-3.87788-3.5198-6.12788-7.38916-6.12788-4.55966 0-7.99432 3.32386-7.99432 8.96588 0 5.6335 3.39205 8.9659 7.99432 8.9659 4.15056 0 6.90336-2.6846 7.38916-6.017l-3.1875-.0171c-.4005 2.0455-2.071 3.1961-4.15905 3.1961-2.82954 0-4.85795-2.1222-4.85795-6.1279 0-3.9375 2.01136-6.12781 4.86648-6.12781 2.12212 0 3.78412 1.20171 4.15052 3.28981z"/><path d="m29.0888 6.54545v11.46305c0 2.1563-1.7301 3.4091-3.929 3.4091-2.1903 0-3.9204-1.2528-3.9204-3.4091v-11.46305h-3.162v11.53975c0 3.9546 3.0341 6.179 7.0824 6.179 4.0313 0 7.0824-2.2244 7.0824-6.179v-11.53975z"/><path d="m34.432 9.19602h5.3948v14.80398h3.1364v-14.80398h5.3949v-2.65057h-13.9261z"/><path d="m82.2073 11.3438h3.0426c-.0597-2.94891-2.5739-5.03698-6.2898-5.03698-3.6647 0-6.4176 2.0625-6.4091 5.14768 0 2.5057 1.7813 3.9461 4.6535 4.6875l1.9858.5114c1.8835.4773 3.1278 1.0654 3.1363 2.4205-.0085 1.4914-1.4233 2.4886-3.4858 2.4886-1.9773 0-3.5113-.8864-3.6392-2.7187h-3.1108c.1279 3.4687 2.7102 5.4204 6.7756 5.4204 4.1846 0 6.6136-2.0881 6.6221-5.1648-.0085-3.0255-2.5056-4.4062-5.1306-5.0284l-1.6364-.4091c-1.4318-.3409-2.983-.946-2.9659-2.4034.0085-1.31248 1.1847-2.27555 3.1619-2.27555 1.8835 0 3.1279.87784 3.2898 2.36085z"/><path d="m87.0604 9.19602h5.3949v14.80398h3.1363v-14.80398h5.3954v-2.65057h-13.9266z"/><path d="m118.038 15.2727c0-5.64202-3.443-8.96588-8.02-8.96588-4.585 0-8.02 3.32386-8.02 8.96588 0 5.6335 3.435 8.9659 8.02 8.9659 4.577 0 8.02-3.3238 8.02-8.9659zm-3.179 0c0 3.9716-1.995 6.1279-4.841 6.1279-2.838 0-4.841-2.1563-4.841-6.1279s2.003-6.12781 4.841-6.12781c2.846 0 4.841 2.15621 4.841 6.12781z"/><path d="m134.891 6.54545h-3.145v11.89775h-.153l-8.216-11.89775h-2.83v17.45455h3.162v-11.8892h.145l8.224 11.8892h2.813z"/><path d="m137.856 24h11.421v-2.6506h-8.259v-4.7642h7.602v-2.6505h-7.602v-4.73868h8.19v-2.65057h-11.352z"/><path d="m55.9999 12h3v20h-3z"/><path d="m61.9999 0h3v20h-3z"/></g></svg>