<svg fill="none" height="36" viewBox="0 0 36 36" width="36" xmlns="http://www.w3.org/2000/svg"><path d="m17.985 3c-8.277 0-14.985 6.7095-14.985 14.985 0 6.348 3.9495 11.775 9.525 13.959-.132-1.185-.249-3.009.051-4.302.273-1.17 1.758-7.449 1.758-7.449s-.4485-.8985-.4485-2.226c0-2.082 1.2075-3.6375 2.712-3.6375 1.2795 0 1.896.96 1.896 2.1105 0 1.287-.819 3.2085-1.2405 4.9905-.3525 1.491.7485 2.7075 2.2185 2.7075 2.6625 0 4.7115-2.808 4.7115-6.8625 0-3.588-2.5785-6.096-6.2595-6.096-4.2645 0-6.768 3.198-6.768 6.5025 0 1.287.4965 2.6685 1.116 3.42.0526.0566.0898.1258.1079.2009.0182.0752.0166.1537-.0044.2281-.114.4725-.3675 1.491-.4155 1.6995-.066.2745-.2175.333-.5025.201-1.8705-.8715-3.0405-3.6075-3.0405-5.8065 0-4.7265 3.4335-9.0675 9.9015-9.0675 5.199 0 9.2385 3.7035 9.2385 8.655 0 5.166-3.2565 9.3195-7.776 9.3195-1.5195 0-2.946-.7875-3.435-1.719l-.9345 3.561c-.3375 1.302-1.251 2.934-1.8615 3.93 1.4372.4437 2.9329.6687 4.437.6675 8.2755 0 14.985-6.7095 14.985-14.985s-6.711-14.9865-14.9865-14.9865z" fill="currentColor"/></svg>