<svg fill="none" height="45" viewBox="0 0 44 45" width="44" xmlns="http://www.w3.org/2000/svg"><path d="m21.9886 44.4686c12.1485 0 21.9885-9.84 21.9885-21.9886 0-12.1485-9.84-21.988545-21.9885-21.988545-12.1486 0-21.9886 9.840045-21.9886 21.988545 0 12.1486 9.84 21.9886 21.9886 21.9886zm0-2.6514c-10.6972 0-19.33717-8.6629-19.33717-19.3372 0-10.6971 8.63997-19.33712 19.33717-19.33712 10.6971 0 19.3371 8.64002 19.3371 19.33712 0 10.6743-8.64 19.3372-19.3371 19.3372zm1.5314-9.0972 10.24-10.24-10.24-10.24-1.76 1.76 7.2457 7.2229h-18.7657v2.5143h18.7657l-7.2457 7.2457z" fill="currentColor"/></svg>