<svg height="16" viewBox="0 0 40 40" width="16" xmlns="http://www.w3.org/2000/svg"><path d="m4.221 29.298-.104-.181c-1.608-2.786-2.459-5.969-2.458-9.205.004-10.152 8.267-18.412 18.419-18.412 4.926.002 9.553 1.919 13.03 5.399s5.392 8.107 5.392 13.028c-.005 10.153-8.268 18.414-18.42 18.414-3.082-.002-6.126-.776-8.811-2.24l-.174-.096-9.385 2.46z" fill="#f2faff"/><path d="m20.078 2c4.791.001 9.293 1.867 12.676 5.253s5.246 7.887 5.246 12.674c-.005 9.878-8.043 17.914-17.927 17.914-2.991-.001-5.952-.755-8.564-2.18l-.349-.19-.384.101-8.354 2.19 2.226-8.131.11-.403-.208-.361c-1.566-2.711-2.393-5.808-2.391-8.955.004-9.876 8.043-17.912 17.919-17.912m0-1c-10.427 0-18.915 8.485-18.92 18.912-.002 3.333.869 6.588 2.525 9.455l-2.683 9.802 10.03-2.63c2.763 1.507 5.875 2.3 9.042 2.302h.008c10.427 0 18.915-8.485 18.92-18.914 0-5.054-1.966-9.807-5.538-13.382-3.572-3.574-8.322-5.543-13.384-5.545z" fill="#788b9c"/><path d="m19.995 35c-2.504-.001-4.982-.632-7.166-1.823l-1.433-.782-1.579.414-3.241.85.83-3.03.453-1.656-.859-1.488c-1.309-2.267-2.001-4.858-2-7.492.004-8.267 6.732-14.992 14.998-14.993 4.011.001 7.779 1.563 10.61 4.397 2.833 2.834 4.392 6.602 4.392 10.608-.004 8.268-6.732 14.995-15.005 14.995z" fill="#79ba7e"/><path d="m28.28 23.688c-.45-.224-2.66-1.313-3.071-1.462-.413-.151-.712-.224-1.012.224-.3.45-1.161 1.462-1.423 1.761-.262.3-.524.337-.974.113s-1.899-.7-3.615-2.231c-1.337-1.191-2.239-2.663-2.501-3.113s-.029-.693.197-.917c.202-.202.45-.525.674-.787s.3-.45.45-.75c.151-.3.075-.563-.038-.787s-1.012-2.437-1.387-3.336c-.364-.876-.736-.757-1.012-.771-.262-.014-.562-.015-.861-.015-.3 0-.787.113-1.198.563s-1.573 1.537-1.573 3.749 1.611 4.35 1.835 4.649c.224.3 3.169 4.839 7.68 6.786 1.072.462 1.911.739 2.562.947 1.076.342 2.057.294 2.832.178.864-.129 2.66-1.087 3.034-2.136.375-1.049.375-1.95.262-2.136-.111-.192-.41-.305-.861-.529z" fill="#fff"/></svg>