<svg fill="none" height="24" viewBox="0 0 24 24" width="24" xmlns="http://www.w3.org/2000/svg"><path d="m12.04 2c-5.45995 0-9.90995 4.45-9.90995 9.91 0 1.75.46 3.45 1.32 4.95l-1.4 5.14 5.25-1.38c1.45.79 3.07995 1.21 4.73995 1.21 5.46 0 9.9101-4.45 9.9101-9.91 0-2.65-1.0301-5.14-2.9001-7.01-.9168-.92608-2.0088-1.66033-3.2123-2.15995-1.2036-.49962-2.4945-.75459-3.7977-.75005zm.01 1.67c2.2 0 4.26.86 5.82 2.42.7657.76535 1.3726 1.67432 1.7862 2.67476s.6256 2.07264.6239 3.15524c0 4.54-3.7001 8.23-8.2401 8.23-1.48 0-2.92995-.39-4.18995-1.15l-.3-.17-3.12.82.83-3.04-.2-.32c-.82606-1.3113-1.26299-2.8302-1.26-4.38.01-4.54 3.7-8.24 8.24995-8.24zm-3.51995 3.66c-.16 0-.43.06-.66.31-.22.25-.87.86-.87 2.07 0 1.22.89 2.39 1 2.56.14.17 1.76 2.67 4.24995 3.73.59.27 1.05.42 1.41.53.59.19 1.13.16 1.56.1.48-.07 1.46-.6 1.67-1.18s.21-1.07.15-1.18c-.07-.1-.23-.16-.48-.27-.25-.14-1.47-.74-1.69-.82-.23-.08-.37-.12-.56.12-.16.25-.64.81-.78.97-.15.17-.29.19-.53.07-.26-.13-1.06-.39-2-1.23-.74-.66-1.22995-1.47-1.37995-1.72-.12-.24-.01-.39.11-.5.11-.11.26995-.29.36995-.44.13-.14.17-.25.25-.41.08-.17.04-.31-.02-.43-.06-.11-.55995-1.35-.76995-1.84-.2-.48-.4-.42-.56-.43-.14 0-.3-.01-.47-.01z" fill="currentColor"/></svg>