<?xml version="1.0" encoding="utf-8"?><svg xmlns="http://www.w3.org/2000/svg" xmlns:xlink="http://www.w3.org/1999/xlink"><symbol fill="none" viewBox="0 0 24 24" id="arrow_more" xmlns="http://www.w3.org/2000/svg"><path d="M8.59 7.41L13.17 12l-4.58 4.59L10 18l6-6-6-6z" fill="currentColor"/></symbol><symbol fill="none" viewBox="0 0 12 11" id="arrow_small" xmlns="http://www.w3.org/2000/svg"><path d="M6.602 11l5.091-5.09L6.603.817l-.876.875L9.33 5.284H0v1.25h9.33l-3.603 3.602z" fill="currentColor"/></symbol><symbol fill="none" viewBox="0 0 36 36" id="eye" xmlns="http://www.w3.org/2000/svg"><g fill="currentColor"><path d="M33.62 17.53c-3.37-6.23-9.28-10-15.82-10S5.34 11.3 2 17.53l-.28.47.26.48c3.37 6.23 9.28 10 15.82 10s12.46-3.72 15.82-10l.26-.48zm-15.82 8.9C12.17 26.43 7 23.29 4 18c3-5.29 8.17-8.43 13.8-8.43S28.54 12.72 31.59 18c-3.05 5.29-8.17 8.43-13.79 8.43z"/><path d="M18.09 24.89a6.86 6.86 0 100-13.72 6.86 6.86 0 000 13.72z"/></g></symbol><symbol fill="none" viewBox="0 0 36 36" id="fb" xmlns="http://www.w3.org/2000/svg"><path d="M30.938 3.938H5.063c-.623 0-1.125.502-1.125 1.124v25.875c0 .623.502 1.125 1.124 1.125h25.875c.623 0 1.125-.502 1.125-1.124V5.063c0-.623-.502-1.125-1.124-1.125zm-3.249 8.208h-2.246c-1.762 0-2.103.837-2.103 2.068v2.71h4.205l-.549 4.244H23.34v10.895h-4.384V21.17H15.29v-4.247h3.667v-3.129c0-3.631 2.219-5.61 5.46-5.61 1.554 0 2.886.115 3.277.168v3.793z" fill="currentColor"/></symbol><symbol fill="none" viewBox="0 0 36 36" id="inst" xmlns="http://www.w3.org/2000/svg"><path d="M18 13.313A4.696 4.696 0 0013.314 18c0 2.58 2.106 4.686 4.686 4.686S22.686 20.58 22.686 18A4.696 4.696 0 0018 13.313zM32.056 18c0-1.94.017-3.864-.092-5.801-.109-2.25-.622-4.247-2.267-5.892-1.65-1.649-3.643-2.159-5.893-2.268-1.94-.109-3.863-.091-5.8-.091-1.941 0-3.864-.018-5.801.091-2.25.11-4.247.622-5.892 2.268-1.65 1.649-2.159 3.642-2.268 5.892-.109 1.94-.091 3.864-.091 5.8s-.018 3.864.091 5.802c.11 2.25.622 4.246 2.268 5.892 1.648 1.649 3.642 2.158 5.892 2.267 1.94.11 3.864.092 5.8.092 1.941 0 3.864.017 5.801-.092 2.25-.109 4.247-.622 5.893-2.267 1.648-1.65 2.158-3.642 2.267-5.892.113-1.938.092-3.86.092-5.801zM18 25.21A7.2 7.2 0 0110.79 18c0-3.99 3.22-7.21 7.21-7.21s7.21 3.22 7.21 7.21A7.2 7.2 0 0118 25.21zm7.506-13.032a1.682 1.682 0 01-1.684-1.684c0-.932.752-1.684 1.684-1.684a1.682 1.682 0 011.556 2.329 1.68 1.68 0 01-1.556 1.039z" fill="currentColor"/></symbol><symbol fill="none" viewBox="0 0 150 32" id="logo" xmlns="http://www.w3.org/2000/svg"><g fill="currentColor" opacity=".9"><path d="M15.662 12.435c-.537-3.878-3.52-6.128-7.39-6.128-4.559 0-7.994 3.324-7.994 8.966 0 5.633 3.392 8.966 7.995 8.966 4.15 0 6.903-2.685 7.389-6.017l-3.188-.018c-.4 2.046-2.07 3.197-4.159 3.197-2.83 0-4.858-2.123-4.858-6.128 0-3.938 2.012-6.128 4.867-6.128 2.122 0 3.784 1.202 4.15 3.29zM29.089 6.545v11.463c0 2.157-1.73 3.41-3.93 3.41-2.19 0-3.92-1.253-3.92-3.41V6.546h-3.162v11.54c0 3.955 3.034 6.18 7.083 6.18 4.031 0 7.082-2.225 7.082-6.18V6.545zM34.432 9.196h5.395V24h3.136V9.196h5.395v-2.65H34.432zM82.207 11.344h3.043c-.06-2.95-2.574-5.037-6.29-5.037-3.665 0-6.417 2.062-6.409 5.147 0 2.506 1.781 3.947 4.654 4.688l1.985.511c1.884.478 3.128 1.066 3.137 2.42-.009 1.492-1.424 2.49-3.486 2.49-1.977 0-3.511-.887-3.64-2.72h-3.11c.128 3.47 2.71 5.421 6.775 5.421 4.185 0 6.614-2.088 6.622-5.165-.008-3.025-2.505-4.406-5.13-5.028l-1.637-.41c-1.431-.34-2.982-.945-2.965-2.402.008-1.313 1.184-2.276 3.162-2.276 1.883 0 3.127.878 3.29 2.36zM87.06 9.196h5.395V24h3.137V9.196h5.395v-2.65H87.06zM118.038 15.273c0-5.642-3.443-8.966-8.02-8.966-4.585 0-8.02 3.324-8.02 8.966 0 5.633 3.435 8.966 8.02 8.966 4.577 0 8.02-3.324 8.02-8.966zm-3.179 0c0 3.971-1.995 6.128-4.841 6.128-2.838 0-4.841-2.157-4.841-6.128s2.003-6.128 4.841-6.128c2.846 0 4.841 2.156 4.841 6.128zM134.891 6.545h-3.145v11.898h-.153l-8.216-11.898h-2.83V24h3.162V12.11h.145L132.078 24h2.813zM137.856 24h11.421v-2.65h-8.259v-4.765h7.602v-2.65h-7.602V9.196h8.19v-2.65h-11.352zM56 12h3v20h-3zM62 0h3v20h-3z"/></g></symbol><symbol fill="none" viewBox="0 0 24 24" id="mdi_close" xmlns="http://www.w3.org/2000/svg"><path d="M19 6.41L17.59 5 12 10.59 6.41 5 5 6.41 10.59 12 5 17.59 6.41 19 12 13.41 17.59 19 19 17.59 13.41 12 19 6.41z" fill="currentColor"/></symbol><symbol fill="none" viewBox="0 0 24 24" id="mdi_search" xmlns="http://www.w3.org/2000/svg"><path d="M15.5 14h-.79l-.28-.27A6.471 6.471 0 0016 9.5 6.5 6.5 0 109.5 16c1.61 0 3.09-.59 4.23-1.57l.27.28v.79l5 4.99L20.49 19zm-6 0C7.01 14 5 11.99 5 9.5S7.01 5 9.5 5 14 7.01 14 9.5 11.99 14 9.5 14z" fill="currentColor"/></symbol><symbol fill="none" viewBox="0 0 24 24" id="mob_menu" xmlns="http://www.w3.org/2000/svg"><path d="M3 18h18v-2H3zm0-5h18v-2H3zm0-7v2h18V6z" fill="currentColor"/></symbol><symbol fill="none" viewBox="0 0 24 21" id="nav-popap-next" xmlns="http://www.w3.org/2000/svg"><path d="M13.66 21l-1.75-1.75 7.204-7.182H.454v-2.5h18.66l-7.205-7.204L13.66.636l10.182 10.182z" fill="currentColor"/></symbol><symbol fill="none" viewBox="0 0 24 21" id="nav-popap-prew" xmlns="http://www.w3.org/2000/svg"><path d="M10.34 21l1.75-1.75-7.204-7.182h18.66v-2.5H4.886l7.205-7.204L10.34.636.159 10.818z" fill="currentColor"/></symbol><symbol fill="none" viewBox="0 0 36 36" id="pinterest" xmlns="http://www.w3.org/2000/svg"><path d="M17.985 3C9.708 3 3 9.71 3 17.985c0 6.348 3.95 11.775 9.525 13.959-.132-1.185-.249-3.009.051-4.302.273-1.17 1.758-7.449 1.758-7.449s-.449-.899-.449-2.226c0-2.082 1.208-3.638 2.713-3.638 1.279 0 1.896.96 1.896 2.111 0 1.287-.82 3.208-1.241 4.99-.352 1.491.749 2.708 2.219 2.708 2.662 0 4.711-2.808 4.711-6.863 0-3.588-2.579-6.096-6.26-6.096-4.264 0-6.767 3.198-6.767 6.503 0 1.287.496 2.668 1.115 3.42a.45.45 0 01.104.429c-.114.472-.367 1.491-.415 1.7-.067.274-.218.332-.503.2-1.87-.871-3.04-3.607-3.04-5.806 0-4.726 3.433-9.068 9.901-9.068 5.199 0 9.239 3.704 9.239 8.655 0 5.166-3.257 9.32-7.776 9.32-1.52 0-2.946-.788-3.435-1.719l-.935 3.561c-.337 1.302-1.251 2.934-1.861 3.93a15 15 0 004.437.667c8.275 0 14.985-6.709 14.985-14.985S26.26 3 17.985 3z" fill="currentColor"/></symbol><symbol fill="none" viewBox="0 0 44 45" id="right_arrow_circled" xmlns="http://www.w3.org/2000/svg"><path d="M21.989 44.469c12.148 0 21.988-9.84 21.988-21.989 0-12.149-9.84-21.989-21.988-21.989C9.84.491 0 10.331 0 22.48c0 12.149 9.84 21.989 21.989 21.989zm0-2.652C11.29 41.817 2.65 33.154 2.65 22.48c0-10.697 8.64-19.337 19.338-19.337 10.697 0 19.337 8.64 19.337 19.337 0 10.674-8.64 19.337-19.337 19.337zm1.531-9.097l10.24-10.24-10.24-10.24L21.76 14l7.246 7.223H10.24v2.514h18.766l-7.246 7.246z" fill="currentColor"/></symbol></svg>