<svg fill="none" height="185" width="698" xmlns="http://www.w3.org/2000/svg"><filter id="b" color-interpolation-filters="sRGB" filterUnits="userSpaceOnUse" height="185" width="698" x="0" y="0"><feFlood flood-opacity="0" result="BackgroundImageFix"/><feColorMatrix in="SourceAlpha" values="0 0 0 0 0 0 0 0 0 0 0 0 0 0 0 0 0 0 127 0"/><feOffset dx="2" dy="3"/><feGaussianBlur stdDeviation="10"/><feColorMatrix values="0 0 0 0 0.756863 0 0 0 0 0.584314 0 0 0 0 0.168627 0 0 0 0.2 0"/><feBlend in2="BackgroundImageFix" result="effect1_dropShadow"/><feBlend in="SourceGraphic" in2="effect1_dropShadow" result="shape"/></filter><linearGradient id="a" gradientUnits="userSpaceOnUse" x1="18.197" x2="737.018" y1="89.419" y2="89.419"><stop offset="0" stop-color="#f0f0f0"/><stop offset=".677" stop-color="#fff" stop-opacity=".94"/><stop offset="1" stop-color="#fff" stop-opacity="0"/></linearGradient><g fill="url(#a)" filter="url(#b)"><path d="M97.927 63.036h36.783C134.572 35.332 113.138 17 78.844 17c-33.671 0-57.456 18.056-57.249 44.934-.069 22.053 15.28 34.32 40.379 39.695l14.105 3.033c15.764 3.445 21.157 7.374 21.295 13.783-.138 6.96-6.5 11.853-18.806 11.853-14.727 0-23.44-6.891-24.061-19.847H18c.138 35.423 24.2 51.273 61.12 51.273 35.885 0 57.388-15.437 57.526-43.279-.138-21.502-12.998-36.595-44.25-43.28l-11.616-2.48c-13.413-2.826-19.428-6.754-19.083-13.508.07-6.203 5.255-10.751 17.147-10.751 12.446 0 18.323 5.444 19.083 14.61zm49.471-13.232h42.591V160.07h37.889V49.804h42.591V18.93H147.398zM415.458 89.5c0-47.139-30.422-72.5-68.864-72.5-38.719 0-68.865 25.361-68.865 72.5 0 46.863 30.146 72.5 68.865 72.5 38.442 0 68.864-25.361 68.864-72.5zm-39.548 0c0 25.361-10.233 39.144-29.316 39.144s-29.316-13.783-29.316-39.144c0-25.361 10.233-39.145 29.316-39.145S375.91 64.14 375.91 89.5zm179.853-70.57h-38.442v73.878h-1.106L465.88 18.93h-32.635v141.14h38.443V85.916h.829l51.165 74.154h32.081zm18.184 141.14h101.776v-30.874H612.39v-24.259h58.355V74.063H612.39V49.804H676V18.93H573.947z"/></g></svg>