<svg fill="none" height="185" viewBox="0 0 698 185" width="698" xmlns="http://www.w3.org/2000/svg" xmlns:xlink="http://www.w3.org/1999/xlink"><filter id="a" color-interpolation-filters="sRGB" filterUnits="userSpaceOnUse" height="185" width="698" x="0" y="0"><feFlood flood-opacity="0" result="BackgroundImageFix"/><feColorMatrix in="SourceAlpha" type="matrix" values="0 0 0 0 0 0 0 0 0 0 0 0 0 0 0 0 0 0 127 0"/><feOffset dx="2" dy="3"/><feGaussianBlur stdDeviation="10"/><feColorMatrix type="matrix" values="0 0 0 0 0.756863 0 0 0 0 0.584314 0 0 0 0 0.168627 0 0 0 0.2 0"/><feBlend in2="BackgroundImageFix" mode="normal" result="effect1_dropShadow"/><feBlend in="SourceGraphic" in2="effect1_dropShadow" mode="normal" result="shape"/></filter><linearGradient id="b" gradientUnits="userSpaceOnUse" x1="18.1967" x2="737.018" y1="89.4189" y2="89.4189"><stop offset="0" stop-color="#f0f0f0"/><stop offset=".677083" stop-color="#fff" stop-opacity=".94"/><stop offset="1" stop-color="#fff" stop-opacity="0"/></linearGradient><g fill="url(#b)" filter="url(#a)"><path d="m97.9273 63.0361h36.7827c-.138-27.7043-21.572-46.0361-55.8657-46.0361-33.6718 0-57.4564 18.0561-57.2489 44.9335-.0692 22.0532 15.2802 34.3203 40.3785 39.6955l14.1048 3.033c15.7642 3.445 21.1572 7.374 21.2954 13.783-.1382 6.96-6.4992 11.853-18.8063 11.853-14.7271 0-23.4389-6.891-24.0612-19.847h-36.5066c.1383 35.423 24.1994 51.273 61.1209 51.273 35.8841 0 57.3871-15.437 57.5251-43.279-.138-21.502-12.998-36.5947-44.25-43.2796l-11.6157-2.481c-13.4134-2.8255-19.4287-6.7538-19.083-13.5076.0691-6.2025 5.2547-10.7509 17.147-10.7509 12.4454 0 18.3224 5.4444 19.083 14.6102z"/><path d="m147.398 49.8042h42.591v110.2658h37.889v-110.2658h42.591v-30.8745h-123.071z"/><path d="m415.458 89.5c0-47.1388-30.422-72.5-68.864-72.5-38.719 0-68.865 25.3612-68.865 72.5 0 46.863 30.146 72.5 68.865 72.5 38.442 0 68.864-25.361 68.864-72.5zm-39.548 0c0 25.361-10.233 39.144-29.316 39.144s-29.316-13.783-29.316-39.144c0-25.3612 10.233-39.1445 29.316-39.1445s29.316 13.7833 29.316 39.1445z"/><path d="m555.763 18.9297h-38.442v73.8783h-1.106l-50.335-73.8783h-32.635v141.1403h38.443v-74.1536h.829l51.165 74.1536h32.081z"/><path d="m573.947 160.07h101.776v-30.874h-63.333v-24.259h58.355v-30.8743h-58.355v-24.2585h63.61v-30.8745h-102.053z"/></g></svg>